<?xml version="1.0" encoding="utf-8"?>
<!-- Generator: Adobe Illustrator 14.0.0, SVG Export Plug-In . SVG Version: 6.00 Build 43363)  -->
<!DOCTYPE svg PUBLIC "-//W3C//DTD SVG 1.1//EN" "http://www.w3.org/Graphics/SVG/1.1/DTD/svg11.dtd">
<svg version="1.1" id="Layer_1" xmlns="http://www.w3.org/2000/svg" xmlns:xlink="http://www.w3.org/1999/xlink" x="0px" y="0px"
	 width="841.891px" height="595.279px" viewBox="0 0 841.891 595.279" enable-background="new 0 0 841.891 595.279"
	 xml:space="preserve">
<g transform="translate(-140.37 -332.96)">
	<path fill="#00000E" stroke="#1FDAFF" stroke-width="30" stroke-linecap="round" stroke-linejoin="round" d="M296.853,630.833
		l143.489-143.872l120.621-120.943l121.461,121.137l143.354,142.974l-88.154,0.119l0.359,264.463l-176.668,0.239l-175.948,0.24
		l-0.36-264.462l-88.154,0.12L296.853,630.833z M737.624,630.234 M385.006,630.713"/>
</g>
<polyline fill="#FFFFFF" points="273.445,201.473 422.592,546.806 568.068,201.473 "/>
<path fill="#1FDAFF" d="M384.961,415.407c10.783-1.008,17.585-2.848,20.407-5.519c2.822-2.67,4.233-9.9,4.233-21.691V316.09
	c0-6.551-0.453-11.086-1.36-13.605c-1.512-4.132-4.686-6.198-9.523-6.198c-1.109,0-2.192,0.101-3.25,0.303
	c-1.058,0.202-4.106,1.008-9.146,2.419v-4.687l6.5-2.116c17.636-5.744,29.932-10.078,36.886-13c2.821-1.209,4.636-1.814,5.441-1.814
	c0.202,0.706,0.303,1.461,0.303,2.268v108.539c0,11.488,1.386,18.694,4.157,21.616c2.771,2.923,9.044,4.787,18.82,5.594v4.232
	h-73.468V415.407z"/>
<polyline points="353.057,285.111 497.051,229.111 497.051,285.111 353.057,229.111 "/>
</svg>
